<svg xmlns="http://www.w3.org/2000/svg" viewBox="0 0 64 64" fill="none">
  <defs>
    <linearGradient id="g" x1="8" y1="8" x2="56" y2="56" gradientUnits="userSpaceOnUse">
      <stop stop-color="#0F172A"/>
      <stop offset="1" stop-color="#1D4ED8"/>
    </linearGradient>
  </defs>
  <rect x="6" y="6" width="52" height="52" rx="16" fill="url(#g)"/>
  <path d="M40.7 20.6c-2.3-1.4-5.2-2.2-8.4-2.2-6.4 0-11 3.1-11 8 0 4.4 3 6.6 9.6 8 4.8 1 6.1 1.7 6.1 3.6 0 2-2 3.4-5.4 3.4-3.1 0-6.2-1.1-8.7-3.1l-3.6 4.3c3 2.6 7.3 4.1 12.1 4.1 7.2 0 11.9-3.4 11.9-8.8 0-4.8-3.1-6.8-9.2-8.1-5.1-1.1-6.5-1.7-6.5-3.6 0-1.8 1.7-2.9 4.6-2.9 2.6 0 5.2.8 7.6 2.4l3-5.1Z" fill="#fff"/>
</svg>
