<svg xmlns="http://www.w3.org/2000/svg" viewBox="0 0 900 600"><defs><linearGradient id="bg" x1="0" x2="1" y1="0" y2="1"><stop offset="0%" stop-color="#071225"/><stop offset="100%" stop-color="#17335f"/></linearGradient></defs><rect width="900" height="600" fill="url(#bg)"/><g opacity="0.16" stroke="#ffffff"><path d="M0 120 H900"/><path d="M0 240 H900"/><path d="M0 360 H900"/><path d="M0 480 H900"/><path d="M180 0 V600"/><path d="M360 0 V600"/><path d="M540 0 V600"/><path d="M720 0 V600"/></g><g><rect x="90" y="120" width="230" height="120" rx="24" fill="#0f2342" stroke="#2a578f"/><rect x="340" y="150" width="220" height="160" rx="24" fill="#0f2342" stroke="#2a578f"/><rect x="590" y="210" width="220" height="120" rx="24" fill="#0f2342" stroke="#2a578f"/><rect x="220" y="360" width="460" height="110" rx="24" fill="#10284d" stroke="#4a77b9"/></g><g fill="#f4c84a" opacity="0.9"><circle cx="320" cy="180" r="8"/><circle cx="590" cy="270" r="8"/><circle cx="440" cy="415" r="8"/><circle cx="560" cy="415" r="8"/></g><g stroke="#f4c84a" stroke-width="4" fill="none"><path d="M320 180 H340"/><path d="M560 270 H590"/><path d="M440 415 H560"/></g><text x="88" y="82" fill="#ffffff" font-family="Arial, sans-serif" font-size="38" font-weight="700">CORPORATE POSITIONING</text></svg>
