<svg xmlns="http://www.w3.org/2000/svg" viewBox="0 0 1200 700">
  <defs>
    <linearGradient id="bg" x1="0" x2="1" y1="0" y2="1">
      <stop offset="0%" stop-color="#071225"/>
      <stop offset="100%" stop-color="#0d2247"/>
    </linearGradient>
    <linearGradient id="line" x1="0" x2="1">
      <stop offset="0%" stop-color="#2f6df2" stop-opacity="0.2"/>
      <stop offset="100%" stop-color="#f4c84a" stop-opacity="0.9"/>
    </linearGradient>
  </defs>
  <rect width="1200" height="700" fill="url(#bg)"/>
  <g opacity="0.15" stroke="#8fb4ff" fill="none">
    <path d="M80 210 C180 150, 280 150, 380 220 S580 320, 690 240 900 140, 1080 220"/>
    <path d="M120 410 C250 340, 340 350, 460 410 S700 520, 860 430 1030 370, 1120 430"/>
    <path d="M150 290 C240 250, 330 250, 440 300 S680 380, 790 320 980 230, 1060 290"/>
  </g>
  <g fill="#dce8ff" opacity="0.2">
    <circle cx="170" cy="240" r="8"/><circle cx="380" cy="220" r="7"/><circle cx="690" cy="240" r="7"/>
    <circle cx="980" cy="190" r="8"/><circle cx="250" cy="385" r="8"/><circle cx="470" cy="412" r="7"/>
    <circle cx="860" cy="432" r="8"/><circle cx="1030" cy="397" r="7"/>
  </g>
  <g stroke="url(#line)" stroke-width="3" fill="none">
    <path d="M170 240 C220 205, 300 205, 380 220"/>
    <path d="M380 220 C490 255, 590 282, 690 240"/>
    <path d="M690 240 C785 202, 880 170, 980 190"/>
    <path d="M250 385 C315 360, 405 374, 470 412"/>
    <path d="M470 412 C590 465, 720 478, 860 432"/>
    <path d="M860 432 C920 415, 970 404, 1030 397"/>
  </g>
  <text x="90" y="160" fill="#ffffff" opacity="0.85" font-family="Arial, sans-serif" font-size="42" font-weight="700">GLOBAL TRADE NETWORK</text>
  <text x="90" y="198" fill="#d6e2ff" opacity="0.75" font-family="Arial, sans-serif" font-size="18">Structured supply, cross-border connectivity, and corporate positioning.</text>
</svg>
