<svg xmlns="http://www.w3.org/2000/svg" viewBox="0 0 900 600"><defs><linearGradient id="bg" x1="0" x2="1" y1="0" y2="1"><stop offset="0%" stop-color="#09162b"/><stop offset="100%" stop-color="#10284d"/></linearGradient><linearGradient id="glow" x1="0" x2="1"><stop offset="0%" stop-color="#2f6df2"/><stop offset="100%" stop-color="#7dd3fc"/></linearGradient></defs><rect width="900" height="600" fill="url(#bg)"/><g stroke="#234573" stroke-width="2" opacity="0.35"><path d="M90 130H810"/><path d="M90 220H810"/><path d="M90 310H810"/><path d="M90 400H810"/><path d="M90 490H810"/><path d="M150 90V510"/><path d="M300 90V510"/><path d="M450 90V510"/><path d="M600 90V510"/><path d="M750 90V510"/></g><rect x="120" y="120" width="200" height="130" rx="24" fill="#0e203d" stroke="#315f9a"/><rect x="350" y="170" width="210" height="160" rx="24" fill="#0e203d" stroke="#315f9a"/><rect x="590" y="110" width="180" height="120" rx="24" fill="#0e203d" stroke="#315f9a"/><rect x="170" y="310" width="250" height="150" rx="24" fill="#0e203d" stroke="#315f9a"/><rect x="500" y="360" width="220" height="100" rx="24" fill="#0e203d" stroke="#315f9a"/><g stroke="url(#glow)" stroke-width="5" fill="none" stroke-linecap="round"><path d="M320 185 H350"/><path d="M560 250 H590"/><path d="M260 382 H500"/><path d="M420 430 H500"/></g><g fill="#f4c84a"><circle cx="350" cy="185" r="7"/><circle cx="590" cy="250" r="7"/><circle cx="500" cy="382" r="7"/><circle cx="500" cy="430" r="7"/></g><text x="110" y="70" fill="#ffffff" font-family="Arial, sans-serif" font-size="38" font-weight="700">INDUSTRIAL SUPPLY VISUAL</text></svg>
