<svg xmlns="http://www.w3.org/2000/svg" width="1600" height="900" viewBox="0 0 1600 900" fill="none">
  <rect width="1600" height="900" fill="#0B1220"/>
  <g opacity="0.28" stroke="#94A3B8" stroke-width="1">
    <path d="M0 120H1600"/><path d="M0 240H1600"/><path d="M0 360H1600"/><path d="M0 480H1600"/><path d="M0 600H1600"/><path d="M0 720H1600"/>
    <path d="M200 0V900"/><path d="M400 0V900"/><path d="M600 0V900"/><path d="M800 0V900"/><path d="M1000 0V900"/><path d="M1200 0V900"/><path d="M1400 0V900"/>
  </g>
  <g opacity="0.14" fill="#E2E8F0">
    <ellipse cx="310" cy="310" rx="170" ry="90"/>
    <ellipse cx="760" cy="290" rx="250" ry="110"/>
    <ellipse cx="1130" cy="380" rx="180" ry="90"/>
    <ellipse cx="1240" cy="620" rx="190" ry="88"/>
    <ellipse cx="600" cy="610" rx="210" ry="95"/>
  </g>
</svg>
